# xmcd
#
# Track frame offsets:
#	182
#	5770
#	21570
#	44415
#	62820
#	83187
#	102275
#	126062
#	148602
#	167037
#	169057
#	178890
#	180702
#	196482
#	211742
#	233152
#	252445
#	277827
#	298587
#
# Disc length: 4234 seconds
#
# Revision: 1
# Processed by: cddbd v1.5.2PL0 Copyright (c) Steve Scherf et al.
# Submitted via: EZCDAudioConverter 2.1.7.1
#
DISCID=19108813
DTITLE=Blackstreet - Another Level
DYEAR=1996
DGENRE=English
TTITLE0=Blackstreet - Black and Street Intro
TTITLE1=Blackstreet - This Is How We Roll
TTITLE2=Blackstreet - Dr. Dre - No Diggity
TTITLE3=Blackstreet - Fix
TTITLE4=Blackstreet - Good Lovin'
TTITLE5=Blackstreet - Let's Stay In Love
TTITLE6=Blackstreet - We Gonna Take U Back (Lude) - Don't Leave Me
TTITLE7=Blackstreet - Never Gonna Let You Go
TTITLE8=Blackstreet - I Wanna Be Your Man
TTITLE9=Blackstreet - Taja's Lude (Interlude)
TTITLE10=Blackstreet - My Paradise (Interlude)
TTITLE11=Blackstreet - Deja's Poem
TTITLE12=Blackstreet - (Money Can't) Buy Me Love
TTITLE13=Blackstreet - Blackstreet (On The Radio)
TTITLE14=Blackstreet - I Can't Get You (Out Of My Mind)
TTITLE15=Blackstreet - I'll Give It To You
TTITLE16=Blackstreet - Happy Song (Tonite)
TTITLE17=Blackstreet - Motherlude
TTITLE18=Blackstreet - The Lord Is Real (Time Will Reveal)
EXTD=
EXTT0=
EXTT1=
EXTT2=
EXTT3=
EXTT4=
EXTT5=
EXTT6=
EXTT7=
EXTT8=
EXTT9=
EXTT10=
EXTT11=
EXTT12=
EXTT13=
EXTT14=
EXTT15=
EXTT16=
EXTT17=
EXTT18=
PLAYORDER=
